<svg xmlns="http://www.w3.org/2000/svg" viewBox="0 0 420.72 420.72" width="420.72" height="420.72"><path fill="#fff" d="M0 0h420.72v420.72H0z"/><path d="M110.952 8.414h198.816l102.537 102.538v198.816L309.768 412.305H110.952L8.414 309.768V110.952z" fill="#3f4d56"/><path d="M130.68 47.16h159.36l83.52 83.52v159.36l-83.52 83.52H130.68l-83.52-83.52V130.68z" fill="#f0f0f0"/><path fill="#2b5fef" d="M107.686 94.265h34.272v228.262h-34.272z"/><path fill="#2b5fef" d="M107.686 94.265h91.39v28.533h-91.39zm0 199.73h91.39v28.533h-91.39zM282.219 93.304h34.272v228.262H282.22z"/><path fill="#2b5fef" d="M225.1 93.304h91.391v28.533h-91.39zm0 199.73h91.391v28.533h-91.39z"/></svg>
